# xmcd
#
# Track frame offsets:
#	150
#	11488
#	25454
#	48134
#	60536
#	72321
#	86813
#	99982
#	115207
#	127141
#	139173
#	153587
#	163995
#	177526
#	187535
#	196859
#
# Disc length: 2748 seconds
#
# Revision: 1
# Processed by: cddbd v1.5.1PL0 Copyright (c) Steve Scherf et al.
# Submitted via: audiograbber 1.83.01
#
DISCID=db0aba10
DTITLE=Various Artist - Ballads Cd 3
DYEAR=1900
DGENRE=
TTITLE0=Wilson Pickett - If You Need Me
TTITLE1=Aaron Neville - Tell It Like It Is
TTITLE2=The Chi-Lites - Have You Seen Her
TTITLE3=The Platters - Only You
TTITLE4=Gladys Knight and The Pips - Lovers Always Forgive
TTITLE5=Betty Harris - Cry To Me
TTITLE6=Betty Swan - Make Me Yours
TTITLE7=Gilbert O'Sullivan - Nothing Rhymed
TTITLE8=Sam and Dave - You Don't Know You Mean To Me
TTITLE9=The Foundations - Build Me Up Buttercup
TTITLE10=Percy Sledge - I'll Be Your Everything
TTITLE11=Pat Boone - Love Letters In The Sand
TTITLE12=B.J.Thomas - Raindrops Keep Falling On My Head
TTITLE13=Gene Pitney - I'm Gonna Be Strong
TTITLE14=Wayne Fontana and The Mindbenders - A Groovy Kind Of Love
TTITLE15=Tom Jones - Spanish Eyes
EXTD=
EXTT0=
EXTT1=
EXTT2=
EXTT3=
EXTT4=
EXTT5=
EXTT6=
EXTT7=
EXTT8=
EXTT9=
EXTT10=
EXTT11=
EXTT12=
EXTT13=
EXTT14=
EXTT15=
PLAYORDER=
